<svg xmlns="http://www.w3.org/2000/svg" viewBox="0 0 237.711 59.475"><g data-name="Group 3279"><g fill="#005193" data-name="Group 3277"><path d="M82.153 3.521A3.523 3.523 0 1085.677 0a3.509 3.509 0 00-3.524 3.521" data-name="Path 2280"/><path d="M72.257 3.521A3.522 3.522 0 1075.779 0a3.509 3.509 0 00-3.522 3.521" data-name="Path 2281"/><path d="M59.202 7.603l-.855 6.233h7.921l-.631 4.382h-7.94l-.9 6.573h9.821l-.633 4.533H49.997l3.656-26.178h15.065l-.626 4.457z" data-name="Path 2282"/><path d="M69.189 29.324l2.8-20.059h6.044l-2.8 20.059z" data-name="Path 2283"/><path d="M82.221 9.266h6.044l-2.531 17.679c-.869 6.044-3.664 8.953-9.406 10.766l-1.549-4.42c3.136-1.133 4.42-2.493 4.911-6.12z" data-name="Path 2284"/><path d="M89.739 29.324L93.723.639h6.074l-1.636 11.573a8.781 8.781 0 016.989-3.627c3.211 0 5.4 1.964 5.4 4.76 0 3.173-1.775 5.592-5.553 7.027l3.816 8.952h-6.5l-3.626-9.671c4.382-1.435 5.817-3.135 5.817-5.212a1.513 1.513 0 00-1.7-1.625c-1.625 0-3.589 1.36-5.4 4.76l-1.662 11.748z" data-name="Path 2285"/><path d="M117.618 21.958c.227 2.531 1.511 3.551 3.362 3.551a7.839 7.839 0 004.8-1.662l2.3 3.551a13.035 13.035 0 01-7.593 2.568c-5.856 0-8.915-3.059-8.915-8.839 0-7.328 4.647-12.542 11.484-12.542 4.8 0 7.4 2.154 7.4 5.516 0 4.042-3.438 7.064-12.844 7.857m.151-3.551c5.176-.529 6.648-2 6.648-4.117 0-1.059-.717-1.663-1.888-1.663-2.04 0-4.118 2.04-4.76 5.78" data-name="Path 2286"/><path d="M140.322 29.251a10.2 10.2 0 01-3.664.717c-3.022 0-4.873-1.511-4.873-4.91a13 13 0 01.113-1.625L135.087.641h6.069l-3.252 22.981c-.15 1.172.151 1.549.831 1.549a3.063 3.063 0 00.945-.151z" data-name="Path 2287"/><path d="M142.136 29.324L146.124.638h6.062l-1.626 11.574a8.778 8.778 0 016.989-3.627c3.211 0 5.4 1.964 5.4 4.76 0 3.173-1.775 5.592-5.553 7.027l3.816 8.952h-6.5l-3.627-9.671c4.382-1.435 5.817-3.135 5.817-5.212a1.513 1.513 0 00-1.7-1.625c-1.624 0-3.588 1.36-5.4 4.76l-1.662 11.748z" data-name="Path 2288"/><path d="M182.028 23.394c-.227 1.587 0 2.153.906 2.531l-1.7 3.966c-2.682-.226-4.231-1.284-4.76-3.324a7.656 7.656 0 01-6.044 3.4c-3.816 0-6.46-2.492-6.46-8.159 0-8.008 4.986-13.221 11.484-13.221a17.384 17.384 0 018.386 2.228zm-5.931-1.02l1.36-8.915a4.7 4.7 0 00-2.153-.453c-2.644 0-5.213 2.795-5.213 8.688 0 2.909 1.1 3.853 2.418 3.853 1.17 0 2.568-1.247 3.588-3.173" data-name="Path 2289"/><path d="M196.346 29.324l1.813-13.032a11.761 11.761 0 00.113-1.436c0-1.057-.3-1.322-.869-1.322-1.019 0-2.493 1.4-4.23 4.835l-1.549 10.955h-6.006l2.795-20.059h5.251l-.227 3.74c2.078-3.06 4.155-4.42 6.573-4.42a4.1 4.1 0 014.307 3.891c2-2.72 4.117-3.891 6.384-3.891 2.569 0 4.457 1.55 4.457 5.1a13.548 13.548 0 01-.113 1.662l-1.964 13.977h-6.045l1.851-13.032a10.77 10.77 0 00.114-1.4c0-1.133-.34-1.359-.907-1.359-1.02 0-2.493 1.4-4.193 4.76l-1.549 11.03z" data-name="Path 2290"/><path d="M223.47 27.813l-1.375 9.914-6.029-.016 4-28.446h5.251l-.189 3.74c1.889-2.908 4.495-4.42 6.913-4.42 3.286 0 5.666 2.229 5.666 7.556 0 8.234-4.382 13.826-9.179 13.826a6.8 6.8 0 01-5.062-2.154m8.084-11.559c0-2-.907-2.833-1.851-2.833-1.4 0-2.947 1.322-4.873 4.8l-.831 5.818a3.688 3.688 0 002.984 1.549c2.04 0 4.571-3.589 4.571-9.331" data-name="Path 2291"/></g><g fill="#ef8400" data-name="Group 3276"><path d="M25.93 10.428a1.762 1.762 0 10-1.766-1.762 1.763 1.763 0 001.766 1.762" data-name="Path 2292"/><path d="M23.678 5.873l-2.589-2.587L23.758.622l2.591 2.587z" data-name="Path 2293"/><path d="M20.982 10.428a1.762 1.762 0 10-1.766-1.762 1.763 1.763 0 001.766 1.762" data-name="Path 2294"/><path d="M30.824 10.428a1.762 1.762 0 10-1.765-1.762 1.763 1.763 0 001.765 1.762" data-name="Path 2295"/><path d="M16.025 10.428a1.762 1.762 0 10-1.765-1.762 1.763 1.763 0 001.765 1.762" data-name="Path 2296"/><path d="M30.142 14.16H15.223l.376-2.6h14.9z" data-name="Path 2297"/><path fill-rule="evenodd" d="M44.944 29.346l.247-1.8h-3.722v-7.72h-2.28v9.518zm-12.322-7.718h.069l.975 4.024h-2.032zm1.911 7.718h2.445l-2.912-9.518h-2.762l-2.926 9.518h2.4l.495-2.045h2.76zm-6.677-9.518h-2.417l-1.718 4.108h-.054l-1.7-4.108h-2.5l3.049 5.962v3.556h2.28v-3.569zm-12.1 4.754c0 2.418-.631 3.338-1.9 3.338-1.221 0-1.894-.92-1.894-3.338s.659-3.324 1.894-3.324 1.9.906 1.9 3.324m2.376 0c0-3.188-1.593-5-4.273-5s-4.271 1.883-4.271 5c0 3.185 1.594 5 4.271 5s4.273-1.882 4.273-5M4.726 22.728c0 1-.522 1.428-1.5 1.428h-.948v-2.733h.866c1.043 0 1.579.4 1.579 1.305m2.335 0c0-1.978-1.318-2.9-3.914-2.9H-.003v9.518h2.28v-3.624h.769l2.047 3.624h2.568l-2.5-4.01a2.727 2.727 0 001.9-2.608" data-name="Path 2298"/></g><g fill="#005193" data-name="Group 3278"><path d="M60.939 55.47l.246-6.669c.056-1.832.245-3.91.3-4.326h-.076l-4.08 9.616H55.61l-1.833-9.616h-.075c-.057.435-.359 2.645-.7 4.326L51.68 55.47h-1.7l2.664-13.016h2.361l1.681 9.5h.076l3.935-9.503h2.494l-.51 13.016z" data-name="Path 2299"/><path d="M66.997 51.617c.038 1.813.907 2.607 1.984 2.607a4.231 4.231 0 002.645-.907l.736 1.209a5.427 5.427 0 01-3.3 1.171c-2.456 0-3.892-1.6-3.892-4.194 0-3.91 2.324-6.215 5.1-6.215 1.964 0 3.192.945 3.192 2.551 0 1.983-1.908 3.476-6.461 3.778m.076-1.228c3.552-.283 4.515-1.19 4.515-2.513 0-.793-.529-1.208-1.36-1.208-1.493 0-2.834 1.416-3.155 3.721" data-name="Path 2300"/><path d="M76.54 51.617c.038 1.813.907 2.607 1.984 2.607a4.231 4.231 0 002.645-.907l.736 1.209a5.427 5.427 0 01-3.3 1.171c-2.456 0-3.892-1.6-3.892-4.194 0-3.91 2.324-6.215 5.1-6.215 1.964 0 3.192.945 3.192 2.551 0 1.983-1.908 3.476-6.461 3.778m.076-1.228c3.552-.283 4.515-1.19 4.515-2.513 0-.793-.529-1.208-1.36-1.208-1.493 0-2.834 1.416-3.155 3.721" data-name="Path 2301"/><path d="M89.536 55.017a4.205 4.205 0 01-2.286.68 2.127 2.127 0 01-2.38-2.38 5.711 5.711 0 01.057-.774l.793-5.706h-1.587l.189-1.322h1.606l.68-2.305 1.379-.151-.34 2.456h2.512l-.4 1.322h-2.3l-.831 5.951c-.151 1.077.189 1.436.944 1.436a2.942 2.942 0 001.361-.435z" data-name="Path 2302"/><path d="M101.115 55.017a4.206 4.206 0 01-2.286.68 2.126 2.126 0 01-2.38-2.38 5.7 5.7 0 01.057-.774l.793-5.706h-1.587l.189-1.322h1.606l.68-2.305 1.379-.151-.34 2.456h2.512l-.4 1.322h-2.3l-.831 5.951c-.151 1.077.189 1.436.944 1.436a2.942 2.942 0 001.361-.435z" data-name="Path 2303"/><path d="M102.606 55.47l1.946-13.961 1.775-.207-.868 6.158c1.076-1.511 2.229-2.172 3.4-2.172a2.155 2.155 0 012.286 2.474 5.245 5.245 0 01-.057.756l-.963 6.952h-1.738l.888-6.574a5.5 5.5 0 00.075-.888c0-1.02-.4-1.285-1.1-1.285-.869 0-1.928.737-3.08 2.834l-.831 5.913z" data-name="Path 2304"/><path d="M115.11 51.617c.038 1.813.907 2.607 1.984 2.607a4.231 4.231 0 002.645-.907l.736 1.209a5.427 5.427 0 01-3.3 1.171c-2.456 0-3.892-1.6-3.892-4.194 0-3.91 2.324-6.215 5.1-6.215 1.964 0 3.192.945 3.192 2.551 0 1.983-1.908 3.476-6.461 3.778m.076-1.228c3.552-.283 4.515-1.19 4.515-2.513 0-.793-.529-1.208-1.36-1.208-1.493 0-2.834 1.416-3.155 3.721" data-name="Path 2305"/><path d="M133.924 55.47l.019-1.53a3.984 3.984 0 01-2.985 1.757c-1.851 0-3.23-1.379-3.23-4.137 0-3.911 2.229-6.272 4.5-6.272a3.536 3.536 0 012.74 1.19l.736-5.176 1.738.208-1.984 13.96zm.227-3.249l.623-4.364a2.663 2.663 0 00-2.266-1.19c-1.436 0-2.91 1.549-2.91 4.893 0 2.04.794 2.758 1.833 2.758.831 0 1.851-.755 2.72-2.1" data-name="Path 2306"/><path d="M138.722 55.471l1.4-9.956h1.739l-1.4 9.956zm2.72-12.317a1.181 1.181 0 110-2.362 1.182 1.182 0 110 2.362" data-name="Path 2307"/><path d="M145.087 46.851h-1.59l.189-1.342h1.587l.151-1.114c.3-2.248 1.36-3.1 3.212-3.1a5.068 5.068 0 012.493.755l-.661 1.191a3.68 3.68 0 00-1.87-.548c-.832 0-1.266.34-1.436 1.682l-.151 1.132h2.418l-.378 1.342h-2.229l-1.134 8.01c-.377 2.645-1.265 3.721-3.627 4.609l-.472-1.266c1.492-.642 2.078-1.36 2.362-3.343z" data-name="Path 2308"/><path d="M150.905 46.851h-1.587l.189-1.342h1.59l.151-1.114c.3-2.248 1.36-3.1 3.212-3.1a5.068 5.068 0 012.493.755l-.661 1.191a3.68 3.68 0 00-1.87-.548c-.831 0-1.266.34-1.436 1.682l-.151 1.132h2.418l-.378 1.342h-2.229l-1.133 8.01c-.378 2.645-1.266 3.721-3.627 4.609l-.473-1.266c1.493-.642 2.078-1.36 2.362-3.343z" data-name="Path 2309"/><path d="M156.986 51.617c.038 1.813.907 2.607 1.984 2.607a4.233 4.233 0 002.645-.907l.737 1.209a5.435 5.435 0 01-3.307 1.171c-2.455 0-3.891-1.6-3.891-4.194 0-3.91 2.324-6.215 5.1-6.215 1.965 0 3.193.945 3.193 2.551 0 1.983-1.908 3.476-6.461 3.778m.076-1.228c3.552-.283 4.515-1.19 4.515-2.513 0-.793-.529-1.208-1.36-1.208-1.492 0-2.834 1.416-3.155 3.721" data-name="Path 2310"/><path d="M164.807 55.47l1.4-9.956h1.49l-.246 2.626c.87-2.021 2.022-2.852 3.1-2.852a3.934 3.934 0 01.963.113l-.586 1.851a3.024 3.024 0 00-.812-.113c-1.039.019-2.04 1-2.909 3.57l-.661 4.761z" data-name="Path 2311"/><path d="M173.439 51.617c.038 1.813.907 2.607 1.984 2.607a4.233 4.233 0 002.645-.907l.737 1.209a5.435 5.435 0 01-3.307 1.171c-2.455 0-3.891-1.6-3.891-4.194 0-3.91 2.324-6.215 5.1-6.215 1.965 0 3.193.945 3.193 2.551 0 1.983-1.908 3.476-6.461 3.778m.076-1.228c3.552-.283 4.515-1.19 4.515-2.513 0-.793-.529-1.208-1.36-1.208-1.492 0-2.834 1.416-3.155 3.721" data-name="Path 2312"/><path d="M182.997 55.47h-1.738l1.4-9.956h1.492l-.189 2.116c1.115-1.625 2.3-2.342 3.552-2.342a2.155 2.155 0 012.286 2.474 5.253 5.253 0 01-.057.756l-.964 6.952h-1.737l.887-6.574a5.288 5.288 0 00.076-.888c0-1.02-.4-1.285-1.1-1.285-.869 0-1.927.737-3.1 2.853z" data-name="Path 2313"/><path d="M198.203 53.392l.66 1.247a5.45 5.45 0 01-3.154 1.057c-2.211 0-3.779-1.51-3.779-4.268 0-3.911 2.38-6.14 4.988-6.14a4.417 4.417 0 012.965 1.058l-.849 1.171a2.972 2.972 0 00-2.1-.775c-1.605 0-3.136 1.625-3.136 4.686 0 1.964.833 2.795 2.1 2.795a3.974 3.974 0 002.306-.831" data-name="Path 2314"/><path d="M202.282 51.617c.038 1.813.907 2.607 1.984 2.607a4.233 4.233 0 002.645-.907l.737 1.209a5.435 5.435 0 01-3.307 1.171c-2.455 0-3.891-1.6-3.891-4.194 0-3.91 2.324-6.215 5.1-6.215 1.965 0 3.193.945 3.193 2.551 0 1.983-1.908 3.476-6.461 3.778m.076-1.228c3.551-.283 4.515-1.19 4.515-2.513 0-.793-.529-1.208-1.36-1.208-1.492 0-2.834 1.416-3.155 3.721" data-name="Path 2315"/></g></g></svg>
